<svg width="173" height="218" viewBox="0 0 173 218" fill="none" xmlns="http://www.w3.org/2000/svg">
<g clip-path="url(#clip0_339_2085)">
<path d="M58.4246 0L0 218H114.575L173 0H58.4246Z" fill="white"/>
<path opacity="0.07" d="M110.994 213.329H6.09509L6.26122 212.675L62.0071 4.67163H166.874L166.698 5.32563L110.994 213.329ZM7.44487 212.291H110.236L165.597 5.70973H62.8065L7.44487 212.291Z" fill="black"/>
<path opacity="0.07" d="M59.0163 212.903L58.3518 212.716L113.994 5.10718L114.648 5.27327L59.0163 212.903Z" fill="black"/>
<path opacity="0.07" d="M138.415 108.657H34.5857V109.342H138.415V108.657Z" fill="black"/>
<path opacity="0.07" d="M41.5417 212.851L41.2095 212.768L96.8515 5.14893L97.1837 5.23197L41.5417 212.851Z" fill="black"/>
<path opacity="0.07" d="M76.1479 212.851L75.8157 212.768L131.458 5.14893L131.79 5.23197L76.1479 212.851Z" fill="black"/>
<path opacity="0.07" d="M129.142 143.433H25.3134V143.776H129.142V143.433Z" fill="black"/>
<path opacity="0.07" d="M147.686 74.2239H43.8574V74.5665H147.686V74.2239Z" fill="black"/>
<path opacity="0.07" d="M32.7995 212.831L32.6438 212.789L88.2858 5.17017L88.4415 5.21169L32.7995 212.831Z" fill="black"/>
<path opacity="0.07" d="M84.7143 212.831L84.5586 212.789L140.201 5.17017L140.356 5.21169L84.7143 212.831Z" fill="black"/>
<path opacity="0.07" d="M124.502 160.821H20.6725V160.977H124.502V160.821Z" fill="black"/>
<path opacity="0.07" d="M152.328 57.0122H48.4989V57.1679H152.328V57.0122Z" fill="black"/>
<path opacity="0.07" d="M172.356 0.519048L114.212 217.481H0.674889L58.8192 0.519048H172.356ZM173.031 0H58.4246L0 218H114.575L173 0H173.031Z" fill="black"/>
</g>
<defs>
<clipPath id="clip0_339_2085">
<rect width="173" height="218" fill="white"/>
</clipPath>
</defs>
</svg>
